<svg width="17" height="17" viewBox="0 0 17 17" fill="none" xmlns="http://www.w3.org/2000/svg">
<path d="M10.625 0C9.63853 0.000884541 8.66624 0.23506 7.78754 0.683406C6.90884 1.13175 6.14863 1.78156 5.56898 2.57977C4.98933 3.37798 4.60667 4.30196 4.45225 5.27627C4.29784 6.25059 4.37604 7.24761 4.68047 8.18594L0.182813 12.6828C0.124791 12.7409 0.0787825 12.8098 0.0474149 12.8857C0.0160474 12.9616 -6.43662e-05 13.0429 1.93249e-07 13.125V16.25C1.93249e-07 16.4158 0.0658482 16.5747 0.183058 16.6919C0.300269 16.8092 0.45924 16.875 0.625 16.875H3.75C3.91576 16.875 4.07473 16.8092 4.19194 16.6919C4.30915 16.5747 4.375 16.4158 4.375 16.25V15H5.625C5.79076 15 5.94973 14.9342 6.06694 14.8169C6.18415 14.6997 6.25 14.5408 6.25 14.375V13.125H7.5C7.5821 13.1251 7.66341 13.109 7.73928 13.0776C7.81515 13.0462 7.8841 13.0002 7.94219 12.9422L8.68906 12.1945C9.54806 12.4734 10.4573 12.5628 11.3542 12.4566C12.2511 12.3504 13.1143 12.0511 13.8843 11.5792C14.6544 11.1074 15.3131 10.4743 15.815 9.72343C16.317 8.9726 16.6502 8.12191 16.7918 7.22994C16.9334 6.33797 16.88 5.4259 16.6353 4.55655C16.3906 3.68719 15.9604 2.88119 15.3743 2.19405C14.7882 1.50691 14.0601 0.95496 13.2403 0.576195C12.4204 0.197431 11.5281 0.000853679 10.625 0ZM10.625 11.25C9.99232 11.2511 9.36523 11.1315 8.77734 10.8977C8.66234 10.8477 8.53499 10.8336 8.41183 10.857C8.28867 10.8804 8.17539 10.9403 8.08672 11.0289L7.24141 11.875H5.625C5.45924 11.875 5.30027 11.9408 5.18306 12.0581C5.06585 12.1753 5 12.3342 5 12.5V13.75H3.75C3.58424 13.75 3.42527 13.8158 3.30806 13.9331C3.19085 14.0503 3.125 14.2092 3.125 14.375V15.625H1.25V13.3836L5.84609 8.78828C5.93471 8.69961 5.99461 8.58633 6.01802 8.46317C6.04143 8.34001 6.02725 8.21266 5.97734 8.09766C5.5821 7.10379 5.51598 6.00937 5.78869 4.97514C6.0614 3.94092 6.65857 3.0214 7.49249 2.35164C8.32641 1.68189 9.35312 1.29719 10.4218 1.25407C11.4905 1.21094 12.5449 1.51165 13.4301 2.11203C14.3152 2.71242 14.9846 3.58082 15.3397 4.58971C15.6949 5.5986 15.7172 6.69479 15.4033 7.71727C15.0894 8.73976 14.4559 9.63465 13.5959 10.2705C12.7359 10.9064 11.6946 11.2497 10.625 11.25ZM13.125 4.6875C13.125 4.87292 13.07 5.05418 12.967 5.20835C12.864 5.36252 12.7176 5.48268 12.5463 5.55364C12.375 5.62459 12.1865 5.64316 12.0046 5.60699C11.8227 5.57081 11.6557 5.48152 11.5246 5.35041C11.3935 5.2193 11.3042 5.05225 11.268 4.8704C11.2318 4.68854 11.2504 4.50004 11.3214 4.32873C11.3923 4.15743 11.5125 4.01101 11.6667 3.908C11.8208 3.80498 12.0021 3.75 12.1875 3.75C12.4361 3.75 12.6746 3.84877 12.8504 4.02459C13.0262 4.2004 13.125 4.43886 13.125 4.6875Z" fill="white"/>
</svg>
