<svg width="22" height="18" viewBox="0 0 22 18" fill="none" xmlns="http://www.w3.org/2000/svg">
<path d="M0.650024 16.9923H2.65002M2.65002 16.9923H8.65002M2.65002 16.9923V8.44441C2.65002 7.91007 2.65002 7.64276 2.715 7.39412C2.77257 7.17377 2.86782 6.96526 2.99573 6.77683C3.14007 6.5642 3.34066 6.38788 3.7428 6.03601L8.54438 1.83463C9.28987 1.18233 9.66264 0.856157 10.0824 0.732009C10.4526 0.622533 10.8472 0.622533 11.2174 0.732009C11.6375 0.856251 12.0108 1.18273 12.7574 1.83601L17.5574 6.03601C17.9596 6.38787 18.1603 6.5642 18.3046 6.77683C18.4325 6.96526 18.527 7.17377 18.5846 7.39412C18.6496 7.64276 18.65 7.91007 18.65 8.44441V16.9923M8.65002 16.9923H12.65M8.65002 16.9923V12.9923C8.65002 11.8877 9.54545 10.9923 10.65 10.9923C11.7546 10.9923 12.65 11.8877 12.65 12.9923V16.9923M12.65 16.9923H18.65M18.65 16.9923H20.65" stroke="white" stroke-width="1.3" stroke-linecap="round" stroke-linejoin="round"/>
</svg>
