<svg width="41" height="43" viewBox="0 0 41 43" fill="none" xmlns="http://www.w3.org/2000/svg">
<path d="M18.2845 37.8715C20.6831 36.8521 21.1021 40.3683 18.3344 41.4921C4.48752 47.1566 0.184286 33.4933 0.00495108 19.5255C-0.047088 15.6426 0.320917 14.7459 0.647295 18.7887C1.69395 31.617 5.57025 42.495 14.3822 25.475C16.713 21.2898 17.2529 24.8172 15.1025 28.5347C11.4819 34.6683 6.05963 44.2598 18.2845 37.8715Z" fill="url(#paint0_linear_1719_7675)"/>
<path d="M15.9407 38.045C15.074 38.7789 14.365 39.1762 13.7541 39.2928C13.3019 39.3812 12.8929 39.3326 12.5713 39.0198C11.8483 38.4153 11.588 37.4872 11.78 36.2135C12.0132 34.913 12.6307 33.6686 13.7671 32.2506C14.5559 31.3104 15.3558 30.6824 16.0507 30.405C16.3488 30.2851 16.6724 30.229 16.9865 30.2398C17.9914 30.2702 18.5763 31.0449 18.5741 32.6142C18.6045 32.9648 18.5763 33.3265 18.4426 33.8048C18.1295 35.05 17.2843 36.5428 15.9407 38.045Z" fill="url(#paint1_linear_1719_7675)"/>
<path d="M3.21169 11.6583C2.84092 14.0913 -0.0824989 12.7319 0.401912 9.9391C2.75209 -4.04098 15.3609 -0.921923 26.1982 5.69785C29.2107 7.53477 29.7326 8.26239 26.4533 6.57278C16.0736 1.21262 6.07913 -1.04605 14.9074 14.3369C16.9984 18.2618 14.0236 16.9923 12.2046 13.4491C9.23666 7.53617 4.22987 -1.36179 3.21169 11.6583Z" fill="url(#paint2_linear_1719_7675)"/>
<path d="M4.36009 10.5918C4.20896 9.47583 4.24681 8.66408 4.4637 8.08249C4.6245 7.65064 4.87179 7.32489 5.28816 7.20829C6.15379 6.90161 7.03019 7.15331 7.97455 7.96368C8.90925 8.82295 9.60524 9.98946 10.173 11.6862C10.5292 12.8419 10.6372 13.8468 10.5032 14.5861C10.4504 14.9077 10.3294 15.2023 10.1578 15.47C9.62485 16.3182 8.6954 16.4199 7.4134 15.6222C7.11749 15.4659 6.83816 15.2575 6.5196 14.8948C5.67691 13.9916 4.89223 12.5054 4.36009 10.5918Z" fill="url(#paint3_linear_1719_7675)"/>
<path d="M31.2529 11.9177C29.1243 10.5289 31.656 8.36628 34.0716 10.0166C46.193 18.2154 37.8607 28.7184 26.9995 36.0558C23.9787 38.0988 23.0756 38.2702 26.0677 35.9231C35.5463 28.4715 41.8993 19.9944 23.668 21.6975C19.0891 21.9773 21.5555 19.7279 25.6642 19.5372C32.4852 19.2809 43.0449 18.4521 31.2529 11.9177Z" fill="url(#paint4_linear_1719_7675)"/>
<path d="M32.3165 13.7502C33.3957 14.0737 34.1154 14.4484 34.5548 14.8866C34.8819 15.2104 35.0794 15.5718 35.0112 15.9992C34.9283 16.9112 34.3368 17.6083 33.2089 18.1308C32.0294 18.6207 30.6814 18.7718 28.9059 18.5842C27.7079 18.4308 26.7462 18.1092 26.1322 17.6829C25.8612 17.4972 25.6402 17.2696 25.4738 17.003C24.9127 16.16 25.2116 15.2761 26.471 14.4387C26.7354 14.2356 27.041 14.0662 27.5051 13.9314C28.6761 13.5374 30.3543 13.4393 32.3165 13.7502Z" fill="url(#paint5_linear_1719_7675)"/>
<path d="M20.5732 23.6053C20.3121 22.9895 18.8307 23.3969 17.8038 22.2368C17.3283 21.7515 16.841 20.9051 17.9219 20.8882C18.7653 20.7849 19.8665 20.7322 20.4758 20.0527C20.836 19.5802 20.6175 19.1267 20.1814 18.8108C19.3738 18.1767 18.2672 18.0079 17.2841 18.2648C17.1721 18.2943 17.0093 18.3543 17.0274 18.4985C17.075 18.6367 17.2105 18.721 17.2599 18.8636C17.4498 19.5313 16.7936 20.1557 16.2684 20.4739C15.5533 20.859 14.7315 21.0191 14.0326 21.4429C12.9517 22.0251 12.2407 23.0841 13.3144 24.092C13.5683 24.3569 14.0407 24.694 14.3931 24.421C14.5625 24.1154 14.4311 23.6913 14.5018 23.3452C14.6282 22.6943 14.8572 22.1004 15.4041 21.693C16.0176 21.1733 16.7728 21.7417 16.9964 22.3777C17.2847 23.1899 17.2458 24.2153 18.0136 24.7713C18.7457 25.3545 20.7122 24.5727 20.5732 23.6053Z" fill="url(#paint6_linear_1719_7675)"/>
<path d="M14.9468 19.9691C14.3422 19.7616 14.0249 20.7328 14.6774 20.8769C15.2205 20.9924 15.4594 20.1732 14.9468 19.9691Z" fill="url(#paint7_linear_1719_7675)"/>
<path d="M15.6162 20.3869C15.6258 20.5515 15.902 20.3819 15.9936 20.2172C16.4693 19.3614 15.8452 17.7949 14.7487 17.6195C13.547 17.4273 12.8449 18.4304 13.7883 19.151C14.403 19.6203 15.5653 19.521 15.6162 20.3869Z" fill="url(#paint8_linear_1719_7675)"/>
<defs>
<linearGradient id="paint0_linear_1719_7675" x1="10.1254" y1="16.1537" x2="10.1254" y2="42.8047" gradientUnits="userSpaceOnUse">
<stop stop-color="#01BFB3"/>
<stop offset="1" stop-color="#26A4FF"/>
</linearGradient>
<linearGradient id="paint1_linear_1719_7675" x1="15.1521" y1="30.2385" x2="15.1521" y2="39.332" gradientUnits="userSpaceOnUse">
<stop stop-color="#01BFB3"/>
<stop offset="1" stop-color="#26A4FF"/>
</linearGradient>
<linearGradient id="paint2_linear_1719_7675" x1="14.521" y1="0.0877628" x2="14.521" y2="16.751" gradientUnits="userSpaceOnUse">
<stop stop-color="#4D39DF"/>
<stop offset="1" stop-color="#2563EB"/>
</linearGradient>
<linearGradient id="paint3_linear_1719_7675" x1="7.41375" y1="7.08197" x2="7.41375" y2="16.167" gradientUnits="userSpaceOnUse">
<stop stop-color="#4D39DF"/>
<stop offset="1" stop-color="#2563EB"/>
</linearGradient>
<linearGradient id="paint4_linear_1719_7675" x1="30.6272" y1="9.42185" x2="30.6272" y2="37.6357" gradientUnits="userSpaceOnUse">
<stop stop-color="#2563EB"/>
<stop offset="1" stop-color="#26A4FF"/>
</linearGradient>
<linearGradient id="paint5_linear_1719_7675" x1="30.1136" y1="13.5662" x2="30.1136" y2="18.6621" gradientUnits="userSpaceOnUse">
<stop stop-color="#2563EB"/>
<stop offset="1" stop-color="#26A4FF"/>
</linearGradient>
<linearGradient id="paint6_linear_1719_7675" x1="17.6313" y1="17.9966" x2="16.3996" y2="24.9396" gradientUnits="userSpaceOnUse">
<stop stop-color="#2563EB"/>
<stop offset="1" stop-color="#26A4FF"/>
</linearGradient>
<linearGradient id="paint7_linear_1719_7675" x1="14.8573" y1="19.9463" x2="14.6917" y2="20.8798" gradientUnits="userSpaceOnUse">
<stop stop-color="#01BFB3"/>
<stop offset="1" stop-color="#26A4FF"/>
</linearGradient>
<linearGradient id="paint8_linear_1719_7675" x1="14.9935" y1="17.6628" x2="14.5342" y2="20.2522" gradientUnits="userSpaceOnUse">
<stop stop-color="#01BFB3"/>
<stop offset="1" stop-color="#26A4FF"/>
</linearGradient>
</defs>
</svg>
