<svg width="16" height="20" viewBox="0 0 16 20" fill="none" xmlns="http://www.w3.org/2000/svg">
<path d="M0.650024 7.67175C0.650024 12.593 4.89452 16.6626 6.77325 18.2229C7.04212 18.4462 7.17817 18.5592 7.37877 18.6164C7.53497 18.6611 7.76486 18.6611 7.92106 18.6164C8.12204 18.5591 8.25713 18.4472 8.52702 18.223C10.4057 16.6627 14.65 12.5934 14.65 7.67221C14.65 5.80983 13.9126 4.02352 12.5998 2.70662C11.287 1.38973 9.50667 0.649902 7.65015 0.649902C5.79362 0.649902 4.01305 1.38984 2.70029 2.70673C1.38753 4.02363 0.650024 5.80938 0.650024 7.67175Z" stroke="white" stroke-width="1.3" stroke-linecap="round" stroke-linejoin="round"/>
<path d="M5.65005 6.73571C5.65005 7.85607 6.54549 8.76431 7.65006 8.76431C8.75464 8.76431 9.65008 7.85607 9.65008 6.73571C9.65008 5.61534 8.75464 4.7071 7.65006 4.7071C6.54549 4.7071 5.65005 5.61534 5.65005 6.73571Z" stroke="white" stroke-width="1.3" stroke-linecap="round" stroke-linejoin="round"/>
</svg>
