<svg width="191" height="51" viewBox="0 0 191 51" fill="none" xmlns="http://www.w3.org/2000/svg">
<path d="M187.295 8.70801H191V29.7887H187.295V8.70801Z" fill="url(#paint0_linear_869_10471)"/>
<path d="M174.202 8.70801H177.129L185.256 29.7887H181.301L179.371 24.2772H171.773L169.78 29.7887H166.106L174.202 8.70801ZM178.405 21.537C177.741 19.6687 177.17 17.9769 176.693 16.4615C176.215 14.9253 175.852 13.7213 175.603 12.8494C175.312 13.7836 174.928 15.0083 174.451 16.5237C173.973 18.0391 173.413 19.7102 172.769 21.537H178.405Z" fill="url(#paint1_linear_869_10471)"/>
<path d="M162.134 25.4297C162.86 25.4297 163.411 25.6477 163.784 26.0836C164.179 26.5195 164.376 27.08 164.376 27.7651C164.376 28.4294 164.179 28.9898 163.784 29.4465C163.39 29.9032 162.809 30.1316 162.04 30.1316C161.314 30.1316 160.753 29.9032 160.359 29.4465C159.965 28.9898 159.767 28.4501 159.767 27.8273C159.767 27.1631 159.965 26.6026 160.359 26.1459C160.753 25.6684 161.345 25.4297 162.134 25.4297Z" fill="url(#paint2_linear_869_10471)"/>
<path d="M144.114 8.70801H156.632V11.5105H147.82V17.3956H155.075L154.608 20.2292H147.82V26.9862H157.099V29.7887H144.114V8.70801Z" fill="#292929"/>
<path d="M139.399 12.9428C138.9 12.4031 138.371 11.9983 137.811 11.7284C137.271 11.4378 136.638 11.2925 135.911 11.2925C135.019 11.2925 134.261 11.5001 133.638 11.9152C133.036 12.3097 132.548 12.8701 132.175 13.5967C131.801 14.3025 131.531 15.1329 131.365 16.0878C131.199 17.0427 131.116 18.0703 131.116 19.1705C131.116 20.2707 131.189 21.2983 131.334 22.2532C131.5 23.2081 131.77 24.0488 132.143 24.7754C132.538 25.502 133.057 26.0728 133.7 26.488C134.365 26.9032 135.195 27.1108 136.191 27.1108C136.669 27.1108 137.126 27.0693 137.562 26.9862C137.997 26.9032 138.392 26.8201 138.745 26.7371C139.118 26.6333 139.419 26.5399 139.648 26.4569C139.897 26.3738 140.053 26.3219 140.115 26.3012L140.987 28.9168L140.582 29.0725C140.312 29.1763 139.928 29.3008 139.43 29.4462C138.952 29.5707 138.371 29.6849 137.686 29.7887C137.022 29.9132 136.285 29.9755 135.475 29.9755C132.694 29.9755 130.597 29.0933 129.185 27.3287C127.794 25.5435 127.099 22.9382 127.099 19.513C127.099 17.873 127.286 16.3784 127.66 15.0291C128.033 13.659 128.594 12.4861 129.341 11.5104C130.109 10.5348 131.064 9.77707 132.206 9.23733C133.368 8.6976 134.728 8.42773 136.285 8.42773C137.53 8.42773 138.548 8.65608 139.336 9.11278C140.146 9.56948 140.8 10.0884 141.298 10.6697L139.399 12.9428Z" fill="#292929"/>
<path d="M110.543 8.70778C110.689 8.70778 111.021 8.70778 111.54 8.70778C112.059 8.68702 112.64 8.67665 113.283 8.67665C113.927 8.67665 114.57 8.67665 115.214 8.67665C115.858 8.65589 116.387 8.64551 116.802 8.64551C119.376 8.64551 121.255 9.1541 122.438 10.1713C123.621 11.1677 124.213 12.5793 124.213 14.4061C124.213 15.6101 123.912 16.6792 123.31 17.6134C122.708 18.5475 121.722 19.2222 120.352 19.6374C120.933 19.9695 121.452 20.4262 121.909 21.0075C122.365 21.5887 122.812 22.3049 123.248 23.156C123.684 23.9864 124.13 24.962 124.587 26.083C125.043 27.1832 125.573 28.4184 126.175 29.7885H122.158C121.452 28.1485 120.829 26.7473 120.29 25.5848C119.771 24.4223 119.262 23.4778 118.764 22.7512C118.266 22.0246 117.726 21.4953 117.145 21.1631C116.584 20.831 115.92 20.6649 115.152 20.6649H114.249V29.7885H110.543V8.70778ZM114.249 17.9559H116.646C117.809 17.9559 118.702 17.6964 119.324 17.1774C119.968 16.6585 120.29 15.8904 120.29 14.8732C120.29 14.4165 120.227 13.9702 120.103 13.5342C119.978 13.0983 119.76 12.7143 119.449 12.3821C119.158 12.05 118.753 11.7905 118.234 11.6037C117.736 11.3961 117.103 11.2923 116.335 11.2923H114.249V17.9559Z" fill="#292929"/>
<path d="M94.1407 8.70801V21.755C94.1407 23.6856 94.5455 25.066 95.3551 25.8964C96.1647 26.706 97.2649 27.1108 98.6557 27.1108C100.067 27.1108 101.105 26.6437 101.77 25.7096C102.455 24.7547 102.797 23.4365 102.797 21.755V8.70801H106.503V22.0352C106.503 23.1147 106.357 24.1319 106.067 25.0868C105.797 26.0417 105.34 26.8825 104.697 27.609C104.053 28.3356 103.202 28.9168 102.143 29.3528C101.085 29.7679 99.7871 29.9755 98.2509 29.9755C96.7771 29.9755 95.5419 29.7679 94.5455 29.3528C93.5698 28.9168 92.7706 28.3356 92.1478 27.609C91.5458 26.8825 91.1099 26.0417 90.84 25.0868C90.5909 24.1319 90.4663 23.1147 90.4663 22.0352V8.70801H94.1407Z" fill="#292929"/>
<path d="M78.4165 8.42773C79.9734 8.42773 81.302 8.67684 82.4022 9.17506C83.5024 9.67327 84.4054 10.3791 85.1112 11.2925C85.8378 12.2059 86.3672 13.3268 86.6993 14.6554C87.0314 15.9632 87.1975 17.4371 87.1975 19.0771C87.1975 20.6963 87.0107 22.1805 86.637 23.5299C86.2841 24.8584 85.7236 26.0002 84.9556 26.9551C84.2082 27.91 83.2533 28.6573 82.0908 29.197C80.9491 29.716 79.5894 29.9755 78.0117 29.9755C76.4548 29.9755 75.1158 29.7472 73.9948 29.2905C72.8946 28.813 71.9812 28.128 71.2547 27.2353C70.5489 26.3219 70.0299 25.2217 69.6977 23.9347C69.3656 22.6476 69.1995 21.1737 69.1995 19.513C69.1995 17.8938 69.376 16.4095 69.7289 15.0602C70.1025 13.6901 70.663 12.5172 71.4103 11.5416C72.1784 10.5451 73.1437 9.77707 74.3062 9.23733C75.4687 8.6976 76.8388 8.42773 78.4165 8.42773ZM77.9806 11.2925C77.0672 11.2925 76.3095 11.5001 75.7074 11.9152C75.1054 12.3097 74.6176 12.8598 74.2439 13.5656C73.8703 14.2714 73.6004 15.1017 73.4343 16.0566C73.289 17.0116 73.2164 18.0495 73.2164 19.1705C73.2164 20.2292 73.289 21.236 73.4343 22.1909C73.5797 23.1458 73.8391 23.9866 74.2128 24.7131C74.6072 25.4397 75.1366 26.0209 75.8009 26.4569C76.4859 26.8928 77.3682 27.1108 78.4476 27.1108C79.3403 27.1108 80.0876 26.9136 80.6896 26.5191C81.3124 26.1247 81.8106 25.585 82.1842 24.8999C82.5579 24.2149 82.8174 23.4053 82.9627 22.4712C83.1288 21.5162 83.2118 20.4887 83.2118 19.3885C83.2118 18.3297 83.1391 17.3126 82.9938 16.3369C82.8485 15.3612 82.5787 14.4997 82.1842 13.7524C81.8106 13.0051 81.2812 12.4134 80.5962 11.9775C79.9319 11.5208 79.06 11.2925 77.9806 11.2925Z" fill="#292929"/>
<path d="M51.0736 29.7887L57.6127 18.7346L51.6964 8.70801H55.9001L58.8582 14.0327C59.0243 14.3233 59.2215 14.697 59.4499 15.1537C59.6782 15.5896 59.9066 16.0463 60.1349 16.5237C60.3633 16.0463 60.5916 15.5896 60.82 15.1537C61.0691 14.7177 61.2767 14.3544 61.4427 14.0638L64.432 8.70801H68.6046L62.6571 18.7657L69.1962 29.7887H64.9614L61.4739 23.561C61.3078 23.2704 61.1002 22.8967 60.8511 22.44C60.602 21.9626 60.3633 21.4851 60.1349 21.0077L58.8271 23.561L55.3396 29.7887H51.0736Z" fill="#292929"/>
<path d="M129.37 39.6643C129.37 38.9253 129.54 38.3731 129.881 38.0078C130.229 37.6341 130.752 37.4473 131.45 37.4473C132.156 37.4473 132.679 37.6341 133.019 38.0078C133.368 38.3731 133.542 38.9253 133.542 39.6643V40.2497C133.542 40.997 133.368 41.5534 133.019 41.9187C132.679 42.2841 132.156 42.4668 131.45 42.4668C130.752 42.4668 130.229 42.2841 129.881 41.9187C129.54 41.5534 129.37 40.997 129.37 40.2497V39.6643ZM132.708 39.7391C132.708 39.1993 132.608 38.8049 132.409 38.5558C132.21 38.2984 131.89 38.1697 131.45 38.1697C131.018 38.1697 130.703 38.2984 130.503 38.5558C130.304 38.8049 130.204 39.1993 130.204 39.7391L130.217 40.175C130.233 40.7562 130.333 41.1631 130.516 41.3956C130.698 41.6281 131.01 41.7444 131.45 41.7444C131.89 41.7444 132.21 41.6198 132.409 41.3707C132.608 41.1216 132.708 40.7272 132.708 40.1874V39.7391Z" fill="#2B3596"/>
<path d="M126.889 38.22C127.296 37.7633 127.852 37.5349 128.558 37.5349C128.666 37.5349 128.753 37.5681 128.82 37.6346C128.886 37.701 128.919 37.7882 128.919 37.8961C128.919 38.0373 128.878 38.1328 128.795 38.1826C128.72 38.2241 128.608 38.2532 128.458 38.2698C127.902 38.3196 127.512 38.4774 127.288 38.7431C127.063 39.0088 126.951 39.4531 126.951 40.0758V41.9441C126.951 42.1019 126.914 42.2265 126.839 42.3178C126.773 42.4091 126.673 42.4548 126.54 42.4548C126.408 42.4548 126.304 42.4091 126.229 42.3178C126.163 42.2265 126.129 42.1019 126.129 41.9441V37.8588C126.129 37.7425 126.163 37.6512 126.229 37.5848C126.304 37.51 126.395 37.4727 126.503 37.4727C126.611 37.4727 126.694 37.5183 126.752 37.6097C126.819 37.701 126.864 37.9044 126.889 38.22Z" fill="#2B3596"/>
<path d="M121.532 40.1003V40.3369C121.532 40.8351 121.639 41.2005 121.855 41.433C122.08 41.6655 122.424 41.7817 122.889 41.7817C123.138 41.7817 123.375 41.7527 123.599 41.6945C123.823 41.6364 124.027 41.5492 124.209 41.433C124.276 41.3998 124.33 41.3832 124.371 41.3832C124.463 41.3832 124.542 41.4205 124.608 41.4953C124.674 41.5617 124.708 41.6406 124.708 41.7319C124.708 41.79 124.691 41.844 124.658 41.8938C124.633 41.9437 124.587 41.9935 124.521 42.0433C124.33 42.1762 124.085 42.2799 123.786 42.3547C123.495 42.4294 123.18 42.4668 122.839 42.4668C122.134 42.4668 121.602 42.2882 121.245 41.9312C120.888 41.5658 120.709 41.0178 120.709 40.2871V39.7017C120.709 38.9627 120.884 38.4022 121.233 38.0202C121.59 37.6382 122.113 37.4473 122.802 37.4473C123.491 37.4473 123.998 37.6424 124.322 38.0327C124.463 38.207 124.575 38.4312 124.658 38.7053C124.741 38.9793 124.782 39.2865 124.782 39.627C124.782 39.793 124.728 39.9134 124.62 39.9882C124.513 40.0629 124.376 40.1003 124.209 40.1003H121.532ZM123.998 39.5024C123.973 38.9876 123.869 38.6264 123.686 38.4188C123.504 38.2029 123.209 38.0949 122.802 38.0949C122.378 38.0949 122.067 38.207 121.868 38.4312C121.669 38.6554 121.556 39.0125 121.532 39.5024H123.998Z" fill="#2B3596"/>
<path d="M115.048 38.0699H118.312V35.3298C118.312 35.1637 118.349 35.035 118.424 34.9436C118.498 34.8523 118.602 34.8066 118.735 34.8066C118.876 34.8066 118.98 34.8523 119.046 34.9436C119.121 35.035 119.159 35.1637 119.159 35.3298V41.9311C119.159 42.0889 119.121 42.2176 119.046 42.3172C118.98 42.4086 118.876 42.4542 118.735 42.4542C118.602 42.4542 118.498 42.4086 118.424 42.3172C118.349 42.2176 118.312 42.0889 118.312 41.9311V38.8297H115.048V41.9311C115.048 42.0889 115.011 42.2176 114.936 42.3172C114.861 42.4086 114.753 42.4542 114.612 42.4542C114.479 42.4542 114.376 42.4086 114.301 42.3172C114.226 42.2176 114.189 42.0889 114.189 41.9311V35.3298C114.189 35.1637 114.226 35.035 114.301 34.9436C114.376 34.8523 114.479 34.8066 114.612 34.8066C114.753 34.8066 114.861 34.8523 114.936 34.9436C115.011 35.035 115.048 35.1637 115.048 35.3298V38.0699Z" fill="#2B3596"/>
<path d="M111.066 42.4541C110.634 42.4541 110.31 42.2922 110.094 41.9683C109.978 41.7857 109.895 41.549 109.845 41.2584C109.795 40.9594 109.77 40.5484 109.77 40.0253V35.0058C109.77 34.8397 109.804 34.7152 109.87 34.6321C109.945 34.5408 110.049 34.4951 110.181 34.4951C110.314 34.4951 110.414 34.5408 110.48 34.6321C110.555 34.7152 110.592 34.8397 110.592 35.0058V40.1C110.592 40.4986 110.609 40.81 110.642 41.0342C110.675 41.2501 110.734 41.412 110.817 41.5199C110.908 41.6196 111.028 41.6902 111.178 41.7317C111.269 41.7566 111.336 41.8023 111.377 41.8687C111.427 41.9268 111.448 42.0099 111.439 42.1178C111.439 42.2174 111.402 42.2963 111.327 42.3544C111.261 42.4209 111.174 42.4541 111.066 42.4541Z" fill="#2B3596"/>
<path d="M107.23 39.3778V39.2035C107.23 38.7966 107.156 38.5143 107.006 38.3565C106.857 38.1987 106.595 38.1199 106.221 38.1199C105.997 38.1199 105.781 38.1531 105.574 38.2195C105.366 38.2859 105.183 38.3773 105.026 38.4935C104.968 38.5433 104.909 38.5682 104.851 38.5682C104.76 38.5682 104.681 38.535 104.615 38.4686C104.548 38.3939 104.515 38.3108 104.515 38.2195C104.515 38.1032 104.552 38.0161 104.627 37.9579C104.818 37.7919 105.055 37.6673 105.337 37.5843C105.628 37.4929 105.939 37.4473 106.271 37.4473C106.661 37.4473 106.989 37.5012 107.255 37.6092C107.529 37.7088 107.733 37.8666 107.866 38.0825C107.949 38.2153 108.003 38.3814 108.027 38.5807C108.061 38.78 108.077 39.0955 108.077 39.5273V42.0557C108.077 42.1803 108.04 42.2758 107.965 42.3422C107.899 42.417 107.803 42.4543 107.679 42.4543C107.579 42.4543 107.496 42.417 107.43 42.3422C107.371 42.2592 107.33 42.0931 107.305 41.844C107.122 42.0599 106.902 42.2177 106.645 42.3173C106.387 42.417 106.076 42.4668 105.711 42.4668C105.196 42.4668 104.806 42.3464 104.54 42.1056C104.274 41.8648 104.141 41.5077 104.141 41.0344C104.141 40.4199 104.349 39.9799 104.764 39.7141C104.947 39.5979 105.188 39.5107 105.487 39.4526C105.794 39.3945 106.172 39.3654 106.62 39.3654C106.67 39.3654 106.715 39.3654 106.757 39.3654C106.807 39.3654 106.865 39.3654 106.931 39.3654C107.006 39.3654 107.106 39.3695 107.23 39.3778ZM107.255 39.9383C107.147 39.9383 107.064 39.9383 107.006 39.9383C106.956 39.93 106.848 39.9259 106.682 39.9259C106.126 39.9342 105.719 40.0089 105.462 40.1501C105.213 40.2829 105.067 40.5237 105.026 40.8725C104.976 41.3292 105.204 41.6074 105.711 41.707C106.051 41.7734 106.383 41.7319 106.707 41.5824C106.89 41.5077 107.027 41.4122 107.118 41.296C107.21 41.1797 107.255 41.0303 107.255 40.8476V39.9383Z" fill="#2B3596"/>
<path d="M99.9052 40.1003V40.3369C99.9052 40.8351 100.013 41.2005 100.229 41.433C100.453 41.6655 100.798 41.7817 101.263 41.7817C101.512 41.7817 101.749 41.7527 101.973 41.6945C102.197 41.6364 102.4 41.5492 102.583 41.433C102.65 41.3998 102.704 41.3832 102.745 41.3832C102.836 41.3832 102.915 41.4205 102.982 41.4953C103.048 41.5617 103.081 41.6406 103.081 41.7319C103.081 41.79 103.065 41.844 103.032 41.8938C103.007 41.9437 102.961 41.9935 102.895 42.0433C102.704 42.1762 102.459 42.2799 102.16 42.3547C101.869 42.4294 101.554 42.4668 101.213 42.4668C100.507 42.4668 99.9758 42.2882 99.6188 41.9312C99.2617 41.5658 99.0832 41.0178 99.0832 40.2871V39.7017C99.0832 38.9627 99.2576 38.4022 99.6063 38.0202C99.9634 37.6382 100.486 37.4473 101.176 37.4473C101.865 37.4473 102.371 37.6424 102.695 38.0327C102.836 38.207 102.949 38.4312 103.032 38.7053C103.115 38.9793 103.156 39.2865 103.156 39.627C103.156 39.793 103.102 39.9134 102.994 39.9882C102.886 40.0629 102.749 40.1003 102.583 40.1003H99.9052ZM102.371 39.5024C102.346 38.9876 102.243 38.6264 102.06 38.4188C101.877 38.2029 101.583 38.0949 101.176 38.0949C100.752 38.0949 100.441 38.207 100.242 38.4312C100.042 38.6554 99.9302 39.0125 99.9052 39.5024H102.371Z" fill="#2B3596"/>
<path d="M94.2732 39.3281V41.9313C94.2732 42.0891 94.2358 42.2178 94.1611 42.3174C94.0863 42.4088 93.9784 42.4544 93.8372 42.4544C93.7044 42.4544 93.6006 42.4088 93.5259 42.3174C93.4511 42.2178 93.4138 42.0891 93.4138 41.9313V35.4296C93.4138 35.2386 93.4677 35.1058 93.5757 35.031C93.6836 34.9563 93.8206 34.9189 93.9867 34.9189H95.4315C96.0045 34.9189 96.4736 34.9895 96.839 35.1307C97.2126 35.2635 97.4867 35.4877 97.661 35.8033C97.8437 36.1188 97.935 36.5547 97.935 37.1111C97.935 37.4764 97.8935 37.7878 97.8105 38.0452C97.7358 38.3027 97.6071 38.5185 97.4244 38.6929C97.25 38.859 97.0175 39.0002 96.7269 39.1164C96.8099 39.1911 96.8847 39.2908 96.9511 39.4153C97.0258 39.5316 97.113 39.6977 97.2126 39.9135L98.0222 41.7196C98.0472 41.7777 98.0679 41.8358 98.0845 41.8939C98.1011 41.9438 98.1094 41.9936 98.1094 42.0434C98.1094 42.1431 98.0638 42.2344 97.9724 42.3174C97.8894 42.4005 97.7897 42.442 97.6735 42.442C97.4742 42.442 97.3289 42.3257 97.2376 42.0932L96.403 40.1377C96.3366 39.98 96.266 39.843 96.1913 39.7267C96.1249 39.6022 96.0584 39.515 95.992 39.4652C95.9339 39.407 95.8633 39.3697 95.7803 39.3531C95.7055 39.3364 95.5768 39.3281 95.3942 39.3281H94.2732ZM94.2607 38.6306H95.307C95.7554 38.6306 96.1083 38.585 96.3657 38.4936C96.6314 38.394 96.8182 38.2362 96.9262 38.0203C97.0341 37.7961 97.0881 37.4972 97.0881 37.1235C97.0881 36.5672 96.9718 36.1811 96.7393 35.9652C96.5068 35.7493 96.0958 35.6414 95.5063 35.6414H94.2607V38.6306Z" fill="#2B3596"/>
<path d="M88.6959 38.22C89.1028 37.7633 89.6591 37.5349 90.365 37.5349C90.4729 37.5349 90.5601 37.5681 90.6265 37.6346C90.6929 37.701 90.7262 37.7882 90.7262 37.8961C90.7262 38.0373 90.6846 38.1328 90.6016 38.1826C90.5269 38.2241 90.4148 38.2532 90.2653 38.2698C89.709 38.3196 89.3187 38.4774 89.0945 38.7431C88.8703 39.0088 88.7582 39.4531 88.7582 40.0758V41.9441C88.7582 42.1019 88.7208 42.2265 88.6461 42.3178C88.5797 42.4091 88.48 42.4548 88.3472 42.4548C88.2143 42.4548 88.1105 42.4091 88.0358 42.3178C87.9694 42.2265 87.9362 42.1019 87.9362 41.9441V37.8588C87.9362 37.7425 87.9694 37.6512 88.0358 37.5848C88.1105 37.51 88.2019 37.4727 88.3098 37.4727C88.4178 37.4727 88.5008 37.5183 88.5589 37.6097C88.6254 37.701 88.671 37.9044 88.6959 38.22Z" fill="#2B3596"/>
<path d="M85.5266 41.969C85.1944 42.3012 84.7253 42.4673 84.1191 42.4673C83.2555 42.4673 82.7241 42.1476 82.5248 41.5082C82.4916 41.3919 82.4667 41.2466 82.4501 41.0723C82.4335 40.8979 82.4252 40.682 82.4252 40.4246V37.9709C82.4252 37.8131 82.4584 37.6927 82.5248 37.6097C82.5995 37.5183 82.7033 37.4727 82.8362 37.4727C82.9691 37.4727 83.0687 37.5183 83.1351 37.6097C83.2099 37.6927 83.2472 37.8131 83.2472 37.9709V40.3498C83.2472 40.7982 83.2929 41.1138 83.3842 41.2965C83.459 41.4542 83.5669 41.5705 83.7081 41.6452C83.8575 41.7116 84.0402 41.7448 84.2561 41.7448C84.7045 41.7448 85.0242 41.6244 85.2152 41.3836C85.2982 41.2757 85.3563 41.1387 85.3895 40.9726C85.4228 40.7982 85.4394 40.5657 85.4394 40.2751V37.9709C85.4394 37.8131 85.4726 37.6927 85.539 37.6097C85.6137 37.5183 85.7175 37.4727 85.8504 37.4727C85.9833 37.4727 86.087 37.5183 86.1618 37.6097C86.2365 37.6927 86.2739 37.8131 86.2739 37.9709V42.0687C86.2739 42.2181 86.2324 42.3178 86.1493 42.3676C86.0746 42.4257 85.9749 42.4548 85.8504 42.4548C85.7674 42.4548 85.6968 42.4216 85.6387 42.3552C85.5805 42.297 85.5432 42.1683 85.5266 41.969Z" fill="#2B3596"/>
<path d="M76.9091 39.6643C76.9091 38.9253 77.0793 38.3731 77.4198 38.0078C77.7685 37.6341 78.2917 37.4473 78.9892 37.4473C79.695 37.4473 80.2181 37.6341 80.5585 38.0078C80.9073 38.3731 81.0817 38.9253 81.0817 39.6643V40.2497C81.0817 40.997 80.9073 41.5534 80.5585 41.9187C80.2181 42.2841 79.695 42.4668 78.9892 42.4668C78.2917 42.4668 77.7685 42.2841 77.4198 41.9187C77.0793 41.5534 76.9091 40.997 76.9091 40.2497V39.6643ZM80.2472 39.7391C80.2472 39.1993 80.1475 38.8049 79.9482 38.5558C79.7489 38.2984 79.4293 38.1697 78.9892 38.1697C78.5574 38.1697 78.2418 38.2984 78.0426 38.5558C77.8433 38.8049 77.7436 39.1993 77.7436 39.7391L77.7561 40.175C77.7727 40.7562 77.8723 41.1631 78.055 41.3956C78.2377 41.6281 78.5491 41.7444 78.9892 41.7444C79.4293 41.7444 79.7489 41.6198 79.9482 41.3707C80.1475 41.1216 80.2472 40.7272 80.2472 40.1874V39.7391Z" fill="#2B3596"/>
<path d="M73.8988 39.4403L71.9931 35.5168C71.935 35.4089 71.9059 35.3092 71.9059 35.2179C71.9059 35.11 71.9475 35.0186 72.0305 34.9439C72.1218 34.8609 72.2215 34.8193 72.3294 34.8193C72.4291 34.8193 72.5121 34.8484 72.5785 34.9065C72.645 34.9563 72.7072 35.0394 72.7654 35.1556L74.3472 38.5186L75.929 35.1432C76.0287 34.9273 76.1657 34.8193 76.3401 34.8193C76.448 34.8193 76.5435 34.8609 76.6265 34.9439C76.7096 35.0186 76.7511 35.1017 76.7511 35.193C76.7511 35.3009 76.722 35.4006 76.6639 35.4919L74.7458 39.4403V41.9313C74.7458 42.0891 74.7084 42.2178 74.6337 42.3175C74.5672 42.4088 74.4634 42.4545 74.3223 42.4545C74.1894 42.4545 74.0856 42.4088 74.0109 42.3175C73.9362 42.2178 73.8988 42.0891 73.8988 41.9313V39.4403Z" fill="#2B3596"/>
<path d="M68.2879 38.0449V35.0058C68.2879 34.8397 68.3212 34.7152 68.3876 34.6321C68.4623 34.5408 68.5661 34.4951 68.699 34.4951C68.8318 34.4951 68.9315 34.5408 68.9979 34.6321C69.0726 34.7152 69.11 34.8397 69.11 35.0058V42.0804C69.11 42.2133 69.0726 42.3088 68.9979 42.3669C68.9232 42.425 68.8277 42.4541 68.7114 42.4541C68.6118 42.4541 68.5371 42.4167 68.4872 42.342C68.4374 42.2673 68.4 42.097 68.3751 41.8313C68.1759 42.0555 67.96 42.2174 67.7275 42.3171C67.5033 42.4167 67.2209 42.4665 66.8805 42.4665C66.266 42.4665 65.8093 42.2797 65.5104 41.9061C65.2115 41.5241 65.062 40.9428 65.062 40.1623V39.7388C65.062 38.9832 65.2198 38.4144 65.5353 38.0324C65.8592 37.6422 66.3325 37.447 66.9552 37.447C67.5697 37.447 68.0139 37.6463 68.2879 38.0449ZM68.2755 39.7388C68.2672 39.4399 68.2464 39.2115 68.2132 39.0538C68.18 38.8877 68.1219 38.7424 68.0388 38.6178C67.8479 38.3189 67.5282 38.1694 67.0798 38.1694C66.6729 38.1694 66.374 38.3023 66.183 38.568C65.992 38.8337 65.8965 39.2489 65.8965 39.8136V40.1997C65.8965 40.7394 65.9879 41.1338 66.1705 41.3829C66.3615 41.6237 66.6605 41.7441 67.0673 41.7441C67.4825 41.7441 67.7897 41.6196 67.989 41.3705C68.1883 41.1131 68.2879 40.7186 68.2879 40.1872L68.2755 39.7388Z" fill="#2B3596"/>
<path d="M60.4886 38.0202C60.6713 37.8209 60.883 37.6756 61.1238 37.5843C61.3647 37.4929 61.6511 37.4473 61.9833 37.4473C62.8717 37.4473 63.4156 37.8126 63.6149 38.5433C63.6564 38.6596 63.6813 38.8215 63.6897 39.0291C63.7063 39.2284 63.7146 39.4733 63.7146 39.764V41.9437C63.7146 42.1014 63.6772 42.226 63.6025 42.3173C63.536 42.4087 63.4364 42.4543 63.3035 42.4543C63.1707 42.4543 63.0669 42.4087 62.9922 42.3173C62.9257 42.226 62.8925 42.1014 62.8925 41.9437V39.8387C62.8925 39.573 62.8801 39.3446 62.8551 39.1537C62.8385 38.9627 62.8053 38.8174 62.7555 38.7177C62.606 38.3524 62.303 38.1697 61.8463 38.1697C61.6138 38.1697 61.4062 38.207 61.2235 38.2818C61.0408 38.3565 60.9038 38.4645 60.8125 38.6056C60.7211 38.7302 60.6547 38.8921 60.6132 39.0914C60.58 39.2907 60.5634 39.5647 60.5634 39.9134V41.9437C60.5634 42.1014 60.526 42.226 60.4513 42.3173C60.3848 42.4087 60.2852 42.4543 60.1523 42.4543C60.0195 42.4543 59.9157 42.4087 59.8409 42.3173C59.7745 42.226 59.7413 42.1014 59.7413 41.9437V37.8583C59.7413 37.7088 59.7787 37.6092 59.8534 37.5594C59.9281 37.5012 60.0236 37.4722 60.1399 37.4722C60.2229 37.4722 60.2976 37.5054 60.3641 37.5718C60.4305 37.6382 60.472 37.7877 60.4886 38.0202Z" fill="#2B3596"/>
<path d="M57.5751 35.3555C57.7329 35.3555 57.8533 35.4094 57.9363 35.5174C58.0276 35.617 58.0733 35.7623 58.0733 35.9533C58.0733 36.136 58.0276 36.2813 57.9363 36.3893C57.8533 36.4972 57.7329 36.5512 57.5751 36.5512C57.4256 36.5512 57.3052 36.4972 57.2139 36.3893C57.1308 36.2813 57.0893 36.136 57.0893 35.9533C57.0893 35.7623 57.1308 35.617 57.2139 35.5174C57.3052 35.4094 57.4256 35.3555 57.5751 35.3555ZM57.1641 41.9444V37.9711C57.1641 37.8133 57.1973 37.6929 57.2637 37.6099C57.3384 37.5185 57.4422 37.4729 57.5751 37.4729C57.7079 37.4729 57.8076 37.5185 57.874 37.6099C57.9487 37.6929 57.9861 37.8133 57.9861 37.9711V41.9444C57.9861 42.1021 57.9487 42.2267 57.874 42.318C57.8076 42.4094 57.7079 42.455 57.5751 42.455C57.4422 42.455 57.3384 42.4094 57.2637 42.318C57.1973 42.2267 57.1641 42.1021 57.1641 41.9444Z" fill="#2B3596"/>
<path d="M52.9418 35.6787V38.1573H55.3332C55.4743 38.1573 55.5823 38.1906 55.657 38.257C55.7401 38.3234 55.7816 38.4147 55.7816 38.531C55.7816 38.6472 55.7401 38.7386 55.657 38.805C55.5823 38.8714 55.4743 38.9047 55.3332 38.9047H52.9418V41.9313C52.9418 42.0891 52.9044 42.2178 52.8297 42.3174C52.7549 42.4088 52.647 42.4544 52.5058 42.4544C52.373 42.4544 52.2692 42.4088 52.1944 42.3174C52.1197 42.2178 52.0823 42.0891 52.0823 41.9313V35.4296C52.0823 35.2386 52.1363 35.1058 52.2443 35.031C52.3522 34.9563 52.4892 34.9189 52.6553 34.9189H55.7442C55.8937 34.9189 56.0058 34.9522 56.0805 35.0186C56.1635 35.085 56.2051 35.1764 56.2051 35.2926C56.2051 35.4089 56.1635 35.5043 56.0805 35.5791C56.0058 35.6455 55.8937 35.6787 55.7442 35.6787H52.9418Z" fill="#2B3596"/>
<path d="M18.2845 41.8715C20.6831 40.8521 21.1021 44.3683 18.3344 45.4921C4.48745 51.1566 0.184225 37.4933 0.00489004 23.5255C-0.047149 19.6426 0.320856 18.7459 0.647234 22.7887C1.69389 35.617 5.57018 46.495 14.3821 29.475C16.713 25.2898 17.2528 28.8172 15.1024 32.5347C11.4818 38.6683 6.05957 48.2598 18.2845 41.8715Z" fill="url(#paint3_linear_869_10471)"/>
<path d="M15.9408 42.045C15.074 42.7789 14.3651 43.1762 13.7542 43.2928C13.3019 43.3812 12.893 43.3326 12.5714 43.0198C11.8483 42.4153 11.588 41.4872 11.7801 40.2135C12.0133 38.913 12.6308 37.6686 13.7672 36.2506C14.556 35.3104 15.3559 34.6824 16.0507 34.405C16.3488 34.2851 16.6724 34.229 16.9865 34.2398C17.9914 34.2702 18.5763 35.0449 18.5741 36.6142C18.6045 36.9648 18.5763 37.3265 18.4426 37.8048C18.1296 39.05 17.2844 40.5428 15.9408 42.045Z" fill="url(#paint4_linear_869_10471)"/>
<path d="M3.21166 15.6583C2.84089 18.0913 -0.0825295 16.7319 0.401881 13.9391C2.75206 -0.0409832 15.3609 3.07808 26.1981 9.69785C29.2107 11.5348 29.7325 12.2624 26.4533 10.5728C16.0736 5.21262 6.0791 2.95395 14.9073 18.3369C16.9983 22.2618 14.0235 20.9923 12.2046 17.4491C9.23663 11.5362 4.22984 2.63821 3.21166 15.6583Z" fill="url(#paint5_linear_869_10471)"/>
<path d="M4.36009 14.5918C4.20896 13.4758 4.24681 12.6641 4.4637 12.0825C4.6245 11.6506 4.87179 11.3249 5.28816 11.2083C6.15379 10.9016 7.03019 11.1533 7.97455 11.9637C8.90925 12.823 9.60524 13.9895 10.173 15.6862C10.5292 16.8419 10.6372 17.8468 10.5032 18.5861C10.4504 18.9077 10.3294 19.2023 10.1578 19.47C9.62485 20.3182 8.6954 20.4199 7.4134 19.6222C7.11749 19.4659 6.83816 19.2575 6.5196 18.8948C5.67691 17.9916 4.89223 16.5054 4.36009 14.5918Z" fill="url(#paint6_linear_869_10471)"/>
<path d="M31.253 15.9177C29.1243 14.5289 31.6561 12.3663 34.0716 14.0166C46.193 22.2154 37.8607 32.7184 26.9996 40.0558C23.9787 42.0988 23.0756 42.2702 26.0677 39.9231C35.5463 32.4715 41.8993 23.9944 23.668 25.6975C19.0891 25.9773 21.5556 23.7279 25.6642 23.5372C32.4852 23.2809 43.045 22.4521 31.253 15.9177Z" fill="url(#paint7_linear_869_10471)"/>
<path d="M32.3165 17.7502C33.3957 18.0737 34.1155 18.4484 34.5548 18.8866C34.8819 19.2104 35.0795 19.5718 35.0112 19.9992C34.9283 20.9112 34.3368 21.6083 33.209 22.1308C32.0295 22.6207 30.6814 22.7718 28.906 22.5842C27.708 22.4308 26.7462 22.1092 26.1323 21.6829C25.8612 21.4972 25.6402 21.2696 25.4739 21.003C24.9127 20.16 25.2117 19.2761 26.471 18.4387C26.7354 18.2356 27.041 18.0662 27.5052 17.9314C28.6761 17.5374 30.3543 17.4393 32.3165 17.7502Z" fill="url(#paint8_linear_869_10471)"/>
<line x1="45.0161" y1="1.05448e-08" x2="45.0161" y2="50.8938" stroke="url(#paint9_linear_869_10471)" stroke-width="0.482476"/>
<path d="M20.5733 27.6053C20.3123 26.9895 18.8309 27.3969 17.804 26.2368C17.3284 25.7515 16.8412 24.9051 17.922 24.8882C18.7655 24.7849 19.8667 24.7322 20.4759 24.0527C20.8361 23.5802 20.6177 23.1267 20.1816 22.8108C19.374 22.1767 18.2674 22.0079 17.2843 22.2648C17.1722 22.2943 17.0095 22.3543 17.0275 22.4985C17.0751 22.6367 17.2106 22.721 17.26 22.8636C17.45 23.5313 16.7937 24.1557 16.2686 24.4739C15.5535 24.859 14.7317 25.0191 14.0328 25.4429C12.9518 26.0251 12.2408 27.0841 13.3146 28.092C13.5684 28.3569 14.0409 28.694 14.3933 28.421C14.5626 28.1154 14.4313 27.6913 14.5019 27.3452C14.6283 26.6943 14.8573 26.1004 15.4043 25.693C16.0178 25.1733 16.773 25.7417 16.9965 26.3777C17.2848 27.1899 17.246 28.2153 18.0137 28.7713C18.7459 29.3545 20.7124 28.5727 20.5733 27.6053Z" fill="url(#paint10_linear_869_10471)"/>
<path d="M14.947 23.9691C14.3423 23.7616 14.0251 24.7328 14.6776 24.8769C15.2207 24.9924 15.4596 24.1732 14.947 23.9691Z" fill="url(#paint11_linear_869_10471)"/>
<path d="M15.6162 24.3869C15.6259 24.5515 15.9021 24.3819 15.9936 24.2172C16.4693 23.3614 15.8452 21.7949 14.7487 21.6195C13.5471 21.4273 12.8449 22.4304 13.7883 23.151C14.403 23.6203 15.5653 23.521 15.6162 24.3869Z" fill="url(#paint12_linear_869_10471)"/>
<defs>
<linearGradient id="paint0_linear_869_10471" x1="189.147" y1="8.70801" x2="189.147" y2="29.7887" gradientUnits="userSpaceOnUse">
<stop stop-color="#2563EB"/>
<stop offset="1" stop-color="#01BFB3"/>
</linearGradient>
<linearGradient id="paint1_linear_869_10471" x1="175.681" y1="8.70801" x2="175.681" y2="29.7887" gradientUnits="userSpaceOnUse">
<stop stop-color="#2563EB"/>
<stop offset="1" stop-color="#01BFB3"/>
</linearGradient>
<linearGradient id="paint2_linear_869_10471" x1="162.072" y1="25.4297" x2="162.072" y2="30.1316" gradientUnits="userSpaceOnUse">
<stop stop-color="#2563EB"/>
<stop offset="1" stop-color="#01BFB3"/>
</linearGradient>
<linearGradient id="paint3_linear_869_10471" x1="10.1254" y1="20.1537" x2="10.1254" y2="46.8047" gradientUnits="userSpaceOnUse">
<stop stop-color="#01BFB3"/>
<stop offset="1" stop-color="#26A4FF"/>
</linearGradient>
<linearGradient id="paint4_linear_869_10471" x1="15.1521" y1="34.2385" x2="15.1521" y2="43.332" gradientUnits="userSpaceOnUse">
<stop stop-color="#01BFB3"/>
<stop offset="1" stop-color="#26A4FF"/>
</linearGradient>
<linearGradient id="paint5_linear_869_10471" x1="14.521" y1="4.08776" x2="14.521" y2="20.751" gradientUnits="userSpaceOnUse">
<stop stop-color="#4D39DF"/>
<stop offset="1" stop-color="#2563EB"/>
</linearGradient>
<linearGradient id="paint6_linear_869_10471" x1="7.41375" y1="11.082" x2="7.41375" y2="20.167" gradientUnits="userSpaceOnUse">
<stop stop-color="#4D39DF"/>
<stop offset="1" stop-color="#2563EB"/>
</linearGradient>
<linearGradient id="paint7_linear_869_10471" x1="30.6273" y1="13.4218" x2="30.6273" y2="41.6357" gradientUnits="userSpaceOnUse">
<stop stop-color="#2563EB"/>
<stop offset="1" stop-color="#26A4FF"/>
</linearGradient>
<linearGradient id="paint8_linear_869_10471" x1="30.1137" y1="17.5662" x2="30.1137" y2="22.6621" gradientUnits="userSpaceOnUse">
<stop stop-color="#2563EB"/>
<stop offset="1" stop-color="#26A4FF"/>
</linearGradient>
<linearGradient id="paint9_linear_869_10471" x1="44.2749" y1="-2.18557e-08" x2="44.2749" y2="50.8938" gradientUnits="userSpaceOnUse">
<stop stop-color="#01BFB3"/>
<stop offset="1" stop-color="#26A4FF"/>
</linearGradient>
<linearGradient id="paint10_linear_869_10471" x1="17.6315" y1="21.9966" x2="16.3998" y2="28.9396" gradientUnits="userSpaceOnUse">
<stop stop-color="#2563EB"/>
<stop offset="1" stop-color="#26A4FF"/>
</linearGradient>
<linearGradient id="paint11_linear_869_10471" x1="14.8575" y1="23.9463" x2="14.6919" y2="24.8798" gradientUnits="userSpaceOnUse">
<stop stop-color="#01BFB3"/>
<stop offset="1" stop-color="#26A4FF"/>
</linearGradient>
<linearGradient id="paint12_linear_869_10471" x1="14.9936" y1="21.6628" x2="14.5342" y2="24.2522" gradientUnits="userSpaceOnUse">
<stop stop-color="#01BFB3"/>
<stop offset="1" stop-color="#26A4FF"/>
</linearGradient>
</defs>
</svg>
