<svg width="18" height="18" viewBox="0 0 18 18" fill="none" xmlns="http://www.w3.org/2000/svg">
<path d="M8.9375 0C7.16983 0 5.44186 0.524175 3.97209 1.50624C2.50233 2.48831 1.35679 3.88415 0.680331 5.51727C0.00387248 7.15038 -0.17312 8.94741 0.171736 10.6811C0.516591 12.4148 1.36781 14.0073 2.61774 15.2573C3.86767 16.5072 5.46018 17.3584 7.19388 17.7033C8.92759 18.0481 10.7246 17.8711 12.3577 17.1947C13.9909 16.5182 15.3867 15.3727 16.3688 13.9029C17.3508 12.4331 17.875 10.7052 17.875 8.9375C17.8725 6.5679 16.9301 4.29606 15.2545 2.6205C13.5789 0.944933 11.3071 0.00250234 8.9375 0ZM4.30375 14.9102C4.8011 14.1323 5.48626 13.4922 6.29606 13.0488C7.10586 12.6054 8.01426 12.373 8.9375 12.373C9.86075 12.373 10.7691 12.6054 11.5789 13.0488C12.3887 13.4922 13.0739 14.1323 13.5713 14.9102C12.2464 15.9405 10.6159 16.4999 8.9375 16.4999C7.25912 16.4999 5.62862 15.9405 4.30375 14.9102ZM6.1875 8.25C6.1875 7.7061 6.34879 7.17442 6.65096 6.72218C6.95314 6.26995 7.38263 5.91747 7.88512 5.70933C8.38762 5.50119 8.94055 5.44673 9.474 5.55284C10.0075 5.65895 10.4975 5.92086 10.882 6.30546C11.2666 6.69005 11.5286 7.18005 11.6347 7.7135C11.7408 8.24695 11.6863 8.79988 11.4782 9.30238C11.27 9.80488 10.9176 10.2344 10.4653 10.5365C10.0131 10.8387 9.4814 11 8.9375 11C8.20816 11 7.50869 10.7103 6.99296 10.1945C6.47724 9.67882 6.1875 8.97935 6.1875 8.25ZM14.5888 13.9571C13.822 12.846 12.7438 11.9864 11.4898 11.4864C12.1634 10.9559 12.655 10.2286 12.8961 9.40577C13.1372 8.58293 13.1159 7.70541 12.8351 6.89523C12.5544 6.08506 12.0281 5.38251 11.3296 4.88528C10.6311 4.38805 9.79494 4.12086 8.9375 4.12086C8.08007 4.12086 7.24394 4.38805 6.5454 4.88528C5.84686 5.38251 5.32063 6.08506 5.03988 6.89523C4.75914 7.70541 4.73784 8.58293 4.97894 9.40577C5.22004 10.2286 5.71157 10.9559 6.38516 11.4864C5.13118 11.9864 4.05302 12.846 3.28625 13.9571C2.31737 12.8676 1.6841 11.5212 1.4627 10.08C1.2413 8.63892 1.44122 7.16452 2.03837 5.83438C2.63552 4.50425 3.60446 3.37509 4.82849 2.58288C6.05253 1.79068 7.47947 1.3692 8.9375 1.3692C10.3955 1.3692 11.8225 1.79068 13.0465 2.58288C14.2706 3.37509 15.2395 4.50425 15.8366 5.83438C16.4338 7.16452 16.6337 8.63892 16.4123 10.08C16.1909 11.5212 15.5576 12.8676 14.5888 13.9571Z" fill="#4A9737"/>
</svg>
